<svg xmlns="http://www.w3.org/2000/svg" viewBox="0 0 15 15"><defs><style>.cls-1{fill:#c1272d;opacity:0;}.cls-2{fill:#fff;}</style></defs><title>课程管理</title><g id="图层_2" data-name="图层 2"><g id="图层_1-2" data-name="图层 1"><rect class="cls-1" width="15" height="15"/><path class="cls-2" d="M12.48,1.18h-10A.85.85,0,0,0,1.67,2V13a.85.85,0,0,0,.85.85h10a.85.85,0,0,0,.85-.85V2a.85.85,0,0,0-.85-.85Zm-2.4,10.05H3a.34.34,0,0,1,0-.68h7.1a.35.35,0,0,1,.34.34.34.34,0,0,1-.34.34Zm0-3.4H3a.35.35,0,0,1-.34-.34A.34.34,0,0,1,3,7.15h7.1a.34.34,0,1,1,0,.68Zm0-3.4H3a.34.34,0,0,1,0-.68h7.1a.35.35,0,0,1,.34.34.34.34,0,0,1-.34.34Zm1.79,6.88a.42.42,0,1,1,.3-.12.42.42,0,0,1-.3.12Zm0-3.4a.42.42,0,1,1,.3-.12.42.42,0,0,1-.3.12Zm0-3.4a.42.42,0,1,1,.42-.42.42.42,0,0,1-.42.42Zm0,0"/></g></g></svg>