<svg xmlns="http://www.w3.org/2000/svg" viewBox="0 0 15 15"><defs><style>.cls-1{fill:#c1272d;opacity:0;}.cls-2{fill:#fff;}</style></defs><title>课程设置</title><g id="图层_2" data-name="图层 2"><g id="图层_1-2" data-name="图层 1"><rect class="cls-1" width="15" height="15"/><path class="cls-2" d="M12.75,4.1,7.82,1.26a.64.64,0,0,0-.64,0L2.25,4.1a.64.64,0,0,0-.32.56v5.68a.64.64,0,0,0,.32.56l4.92,2.84a.64.64,0,0,0,.64,0l4.92-2.84a.64.64,0,0,0,.32-.56V4.66A.64.64,0,0,0,12.75,4.1ZM7.5,9.85A2.35,2.35,0,1,1,9.85,7.5,2.35,2.35,0,0,1,7.5,9.85Z"/></g></g></svg>