<svg xmlns="http://www.w3.org/2000/svg" viewBox="0 0 15 15"><defs><style>.cls-1{fill:#c1272d;opacity:0;}.cls-2{fill:#fff;}</style></defs><title>课程学习</title><g id="图层_2" data-name="图层 2"><g id="图层_1-2" data-name="图层 1"><rect class="cls-1" width="15" height="15"/><path class="cls-2" d="M6.65,11.61H8.3q.83,0,.83.63t-.83.63H6.65q-.83,0-.83-.63t.83-.63Zm0,0"/><path class="cls-2" d="M13.74,2.5a1.24,1.24,0,0,0-.88-.36H8.74A1.24,1.24,0,0,0,7.5,3.37,1.24,1.24,0,0,0,6.26,2.13H2.13A1.24,1.24,0,0,0,.89,3.37V10.8A1.24,1.24,0,0,0,2.13,12H12.87a1.24,1.24,0,0,0,1.24-1.24V3.37A1.24,1.24,0,0,0,13.74,2.5ZM2.52,6.67H3.76a.36.36,0,0,1,.41.41.36.36,0,0,1-.41.41H2.52a.36.36,0,0,1-.41-.41A.36.36,0,0,1,2.52,6.67ZM5,9.56H2.52a.36.36,0,0,1-.41-.41.36.36,0,0,1,.41-.41H5a.36.36,0,0,1,.41.41A.36.36,0,0,1,5,9.56Zm2.88,1.67a.38.38,0,0,1-.38.38h0a.38.38,0,0,1-.38-.38V4.18A.38.38,0,0,1,7.5,3.8h0a.38.38,0,0,1,.38.38Zm4.55-1.67H10a.36.36,0,0,1-.41-.41A.36.36,0,0,1,10,8.74h2.48a.36.36,0,0,1,.41.41A.36.36,0,0,1,12.43,9.56Zm0-2.06H11.19a.36.36,0,0,1-.41-.41.36.36,0,0,1,.41-.41h1.24a.36.36,0,0,1,.41.41A.36.36,0,0,1,12.43,7.5Z"/></g></g></svg>