<svg xmlns="http://www.w3.org/2000/svg" viewBox="0 0 15 15"><defs><style>.cls-1{fill:#c1272d;opacity:0;}.cls-2{fill:#fff;}</style></defs><title>首页</title><g id="图层_2" data-name="图层 2"><g id="图层_1-2" data-name="图层 1"><rect class="cls-1" width="15" height="15"/><path class="cls-2" d="M8,1.36,9.53,2.76V1.92a.68.68,0,0,1,.66-.69h1.29a.68.68,0,0,1,.66.69V5.08l1.78,1.58A.82.82,0,0,1,14,7.78a.75.75,0,0,1-.58.28h-1v4.56a1.19,1.19,0,0,1-1.16,1.21h-2V10.88A.85.85,0,0,0,8.4,10H6.75a.85.85,0,0,0-.83.85h0v2.95H3.64a1.19,1.19,0,0,1-1.16-1.21V8.06H1.56a.78.78,0,0,1-.76-.8.81.81,0,0,1,.27-.61L7,1.36a.74.74,0,0,1,1,0Zm0,0"/></g></g></svg>