<svg xmlns="http://www.w3.org/2000/svg" viewBox="0 0 15 15"><defs><style>.cls-1{fill:#c1272d;opacity:0;}.cls-2{fill:#fff;}</style></defs><title>权限分配</title><g id="图层_2" data-name="图层 2"><g id="图层_1-2" data-name="图层 1"><rect class="cls-1" width="15" height="15"/><path class="cls-2" d="M7.69,1.17,13,3.1a.47.47,0,0,1,.33.46V7.11c0,4.23-4.61,6.09-5.74,6.67a.47.47,0,0,1-.42,0C6,13.2,1.7,11.36,1.7,7.14V3.57A.49.49,0,0,1,2,3.11L7.37,1.17ZM7.5,4.34A1.58,1.58,0,0,0,7,7.41.48.48,0,0,0,7,7.5v2.64a.53.53,0,1,0,1.05,0V7.5a.46.46,0,0,0,0-.09A1.58,1.58,0,0,0,7.5,4.34Zm0,0"/></g></g></svg>