<svg xmlns="http://www.w3.org/2000/svg" viewBox="0 0 15 15"><defs><style>.cls-1{fill:#c1272d;opacity:0;}.cls-2{fill:#fff;}</style></defs><title>实验报告</title><g id="图层_2" data-name="图层 2"><g id="图层_1-2" data-name="图层 1"><rect class="cls-1" width="15" height="15"/><path class="cls-2" d="M5.56,3.15H9.44a1,1,0,0,0,1-1h0a1,1,0,0,0-1-1H5.56a1,1,0,0,0-1,1h0a1,1,0,0,0,1,1Zm6.18-1h-.69A1.62,1.62,0,0,1,9.43,3.79H5.57A1.62,1.62,0,0,1,3.95,2.17H3.25A1.56,1.56,0,0,0,1.69,3.72v8.52A1.56,1.56,0,0,0,3.25,13.8h8.49a1.56,1.56,0,0,0,1.56-1.56V3.72a1.56,1.56,0,0,0-1.56-1.56ZM10.23,10.1H4.77a.39.39,0,1,1,0-.78h5.45a.39.39,0,1,1,0,.78Zm0-3.11H4.75a.39.39,0,0,1,0-.78h5.5a.39.39,0,0,1,0,.78Zm0,0"/></g></g></svg>