<svg xmlns="http://www.w3.org/2000/svg" viewBox="0 0 15 15"><defs><style>.cls-1{fill:#c1272d;opacity:0;}.cls-2{fill:#fff;}</style></defs><title>日志管理</title><g id="图层_2" data-name="图层 2"><g id="图层_1-2" data-name="图层 1"><rect class="cls-1" width="15" height="15"/><path class="cls-2" d="M11,2.76h2a.79.79,0,0,1,.79.79V13a.79.79,0,0,1-.79.79H2A.79.79,0,0,1,1.21,13V3.55A.79.79,0,0,1,2,2.76H4A1,1,0,0,0,4,3v.79a1,1,0,0,0,2,0V3a1,1,0,0,0,0-.2H9.09a1,1,0,0,0,0,.2v.79a1,1,0,1,0,2,0V3a1,1,0,0,0,0-.2ZM4.94,1.19a.59.59,0,0,1,.59.59v2a.59.59,0,1,1-1.18,0v-2a.59.59,0,0,1,.59-.59Zm5.11,0a.59.59,0,0,1,.59.59v2a.59.59,0,1,1-1.18,0v-2a.59.59,0,0,1,.59-.59ZM4.35,6.69a.39.39,0,1,0,0,.79h6.29a.39.39,0,0,0,0-.79Zm0,3.15a.39.39,0,1,0,0,.79h6.29a.39.39,0,0,0,0-.79Zm0,0"/></g></g></svg>