<svg xmlns="http://www.w3.org/2000/svg" xmlns:xlink="http://www.w3.org/1999/xlink" viewBox="0 0 27 24"><defs><style>.cls-1{opacity:0;fill:url(#未命名的渐变_6);}.cls-2{fill:url(#未命名的渐变_6-2);}.cls-3{fill:url(#未命名的渐变_6-3);}</style><linearGradient id="未命名的渐变_6" x1="2.08" y1="25.73" x2="24.92" y2="-1.73" gradientUnits="userSpaceOnUse"><stop offset="0" stop-color="#0892f8"/><stop offset="1" stop-color="#70e4ad"/></linearGradient><linearGradient id="未命名的渐变_6-2" x1="6.23" y1="25.61" x2="22.69" y2="5.82" xlink:href="#未命名的渐变_6"/><linearGradient id="未命名的渐变_6-3" x1="1.55" y1="21.72" x2="18.01" y2="1.93" xlink:href="#未命名的渐变_6"/></defs><title>资源 3</title><g id="图层_2" data-name="图层 2"><g id="图层_1-2" data-name="图层 1"><rect class="cls-1" width="27" height="24"/><path class="cls-2" d="M18.46,24H2.53a4,4,0,0,1,4-4H19.86A4.2,4.2,0,0,0,24.1,16a5.46,5.46,0,0,0-5.46-5.53H6.89A1.33,1.33,0,0,1,5.56,9.09h0A1.33,1.33,0,0,1,6.89,7.76H18.65a8.13,8.13,0,0,1,8.12,8A8.27,8.27,0,0,1,18.46,24Z"/><path class="cls-3" d="M8.54,0H24.47a4,4,0,0,1-4,4H7.14A4.2,4.2,0,0,0,2.9,8a5.46,5.46,0,0,0,5.46,5.53H20.48a1.33,1.33,0,0,1,1.33,1.33h0a1.33,1.33,0,0,1-1.33,1.33H8.35a8.13,8.13,0,0,1-8.12-8A8.27,8.27,0,0,1,8.54,0Z"/></g></g></svg>