<svg xmlns="http://www.w3.org/2000/svg" viewBox="0 0 15 15"><defs><style>.cls-1{fill:#c1272d;opacity:0;}.cls-2{fill:none;}.cls-3{fill:#fff;}</style></defs><title>平台管理</title><g id="图层_2" data-name="图层 2"><g id="图层_1-2" data-name="图层 1"><rect class="cls-1" width="15" height="15"/><rect class="cls-2" x="0.85" y="1.58" width="13.3" height="12.2"/><path d="M6.94,10.44"/><rect class="cls-3" x="6.94" y="10.44" width="1.11" height="2.77"/><rect class="cls-3" x="4.72" y="12.66" width="5.54" height="1.11" rx="0.55" ry="0.55"/><path class="cls-3" d="M13.82,1.54A1.11,1.11,0,0,0,13,1.21H2A1.11,1.11,0,0,0,.85,2.32v7.75A1.11,1.11,0,0,0,2,11.18H13a1.11,1.11,0,0,0,1.11-1.11V2.32A1.11,1.11,0,0,0,13.82,1.54ZM4.75,4H8.07a.55.55,0,0,1,0,1.11H4.75A.55.55,0,1,1,4.75,4Zm5.51,4.8H4.72a.55.55,0,1,1,0-1.11h5.54a.55.55,0,0,1,0,1.11Z"/></g></g></svg>