<svg xmlns="http://www.w3.org/2000/svg" viewBox="0 0 15 15"><defs><style>.cls-1{fill:#c1272d;opacity:0;}.cls-2{fill:#fff;}</style></defs><title>问题解决</title><g id="图层_2" data-name="图层 2"><g id="图层_1-2" data-name="图层 1"><rect class="cls-1" width="15" height="15"/><path class="cls-2" d="M10.59,8.38A1.12,1.12,0,0,1,9,8.38l-2.1-2.1A1.12,1.12,0,0,1,8.49,4.7L9.8,6l3-3a1.11,1.11,0,0,1,.92-.32,1.52,1.52,0,0,0-1.12-.49H2.22a1.3,1.3,0,0,0-1.3,1.3v7.94a1.3,1.3,0,0,0,1.3,1.3H12.78a1.3,1.3,0,0,0,1.3-1.3V4.89ZM2.39,4.12h2.9a.43.43,0,1,1,0,.87H2.39a.43.43,0,0,1,0-.87Zm0,2.95h2.9a.43.43,0,1,1,0,.87H2.39a.43.43,0,0,1,0-.87Zm8.54,3.78H2.39a.43.43,0,0,1,0-.87h8.54a.43.43,0,1,1,0,.87Z"/><path class="cls-2" d="M9.86,8.1a.51.51,0,0,1-.37-.15L7.43,5.87a.52.52,0,0,1,0-.73.51.51,0,0,1,.73,0l1.7,1.71,3.25-3.26a.51.51,0,0,1,.73,0,.52.52,0,0,1,0,.73L10.23,7.95a.52.52,0,0,1-.37.15Zm0,0"/></g></g></svg>