<svg xmlns="http://www.w3.org/2000/svg" viewBox="0 0 15 15"><defs><style>.cls-1{fill:#c1272d;opacity:0;}.cls-2{fill:#fff;}</style></defs><title>问题反馈</title><g id="图层_2" data-name="图层 2"><g id="图层_1-2" data-name="图层 1"><rect class="cls-1" width="15" height="15"/><path class="cls-2" d="M11.07,8a.66.66,0,0,1-.44.2l-2,.22h0a.66.66,0,0,1-.66-.66v0l.3-1.85a.66.66,0,0,1,.2-.43l3.23-3.15H2.26A1.29,1.29,0,0,0,1,3.56v7.88a1.29,1.29,0,0,0,1.29,1.29H12.74A1.29,1.29,0,0,0,14,11.44V5ZM3.18,4.15H6.06a.43.43,0,1,1,0,.86H3.18a.43.43,0,0,1,0-.86Zm0,2.92H6.06a.43.43,0,1,1,0,.86H3.18a.43.43,0,0,1,0-.86Zm8.47,3.75H3.18a.43.43,0,0,1,0-.86h8.47a.43.43,0,1,1,0,.86Zm0,0"/><path class="cls-2" d="M12.86,2.28,9.1,5.95A.2.2,0,0,0,9,6.05L8.78,7.4A.2.2,0,0,0,9,7.62l1.45-.29a.2.2,0,0,0,.12-.06L14,3.75V3.56a1.29,1.29,0,0,0-1.17-1.28ZM10.49,6.91a.43.43,0,0,1-.61,0l-.37-.35A.43.43,0,1,1,10.1,6l.37.35a.43.43,0,0,1,0,.61Zm0,0"/></g></g></svg>