<svg xmlns="http://www.w3.org/2000/svg" viewBox="0 0 15 15"><defs><style>.cls-1{fill:#c1272d;opacity:0;}.cls-2{fill:#fff;}</style></defs><title>学生成绩</title><g id="图层_2" data-name="图层 2"><g id="图层_1-2" data-name="图层 1"><rect class="cls-1" width="15" height="15"/><path class="cls-2" d="M5.53,4.44l-.35.82h.68Zm0,0"/><path class="cls-2" d="M12.63,4.53,9.55,1.45a.9.9,0,0,0-.64-.26H3a.9.9,0,0,0-.9.9V12.91a.9.9,0,0,0,.9.9h9a.9.9,0,0,0,.9-.9V5.17a.91.91,0,0,0-.27-.64ZM3.9,6,5.09,3.14a.45.45,0,0,1,.61-.3h0A.45.45,0,0,1,6,3.13L7.14,6a.45.45,0,0,1-.84.34l-.07-.17H4.8l-.07.16A.45.45,0,1,1,3.9,6Zm7.16,4.69a.45.45,0,0,1-.45.45H4.33a.45.45,0,0,1,0-.9h6.29a.45.45,0,0,1,.45.45Zm0-2.72a.45.45,0,0,1-.45.45H4.33a.45.45,0,0,1,0-.9h6.29a.45.45,0,0,1,.45.45Zm0-2.71a.45.45,0,0,1-.45.45H8.84a.45.45,0,0,1,0-.9h1.78a.45.45,0,0,1,.45.45Zm0,0"/></g></g></svg>