<svg xmlns="http://www.w3.org/2000/svg" viewBox="0 0 15 15"><defs><style>.cls-1{fill:#c1272d;opacity:0;}.cls-2{fill:#fff;}</style></defs><title>系统运行监视</title><g id="图层_2" data-name="图层 2"><g id="图层_1-2" data-name="图层 1"><rect class="cls-1" width="15" height="15"/><path class="cls-2" d="M12.32,12.88a.45.45,0,1,1,0,.9H2.72a.45.45,0,0,1,0-.9ZM12.07,1.22a2.15,2.15,0,0,1,2.15,2.15V9a2.15,2.15,0,0,1-2.15,2.15H2.93A2.15,2.15,0,0,1,.78,9V3.37A2.15,2.15,0,0,1,2.93,1.22Zm-1.36,2.3h0L8.29,6.15,6.63,4.88h0A.43.43,0,0,0,6,5H6L3.61,8h0a.63.63,0,0,0,0,.78h0a.44.44,0,0,0,.67,0h0L6.44,6.08,8.08,7.33h0a.43.43,0,0,0,.58-.06h0l2.7-2.93h0a.63.63,0,0,0,0-.78.44.44,0,0,0-.68,0Zm0,0"/></g></g></svg>