<svg xmlns="http://www.w3.org/2000/svg" viewBox="0 0 15 15"><defs><style>.cls-1{fill:#c1272d;opacity:0;}.cls-2{fill:#fff;}</style></defs><title>教学管理</title><g id="图层_2" data-name="图层 2"><g id="图层_1-2" data-name="图层 1"><rect class="cls-1" width="15" height="15"/><path class="cls-2" d="M13.54,4.38V3.1a.64.64,0,0,0-.64-.64H7.82V1.4a.32.32,0,1,0-.64,0V2.47H2.09a.64.64,0,0,0-.64.64v7a.64.64,0,0,0,.64.64H5.65l-1.56,2.7a.32.32,0,1,0,.55.32l1.74-3H8.66l1.74,3a.32.32,0,0,0,.55-.32l-1.56-2.7h3.51a.64.64,0,0,0,.64-.64V4.38Zm-9.22.87H7.67a.32.32,0,1,1,0,.64H4.32a.32.32,0,0,1,0-.64ZM10.68,7.7H4.32a.32.32,0,0,1,0-.64h6.36a.32.32,0,1,1,0,.64Z"/></g></g></svg>