<svg xmlns="http://www.w3.org/2000/svg" viewBox="0 0 15 15"><defs><style>.cls-1{fill:#c1272d;opacity:0;}.cls-2{fill:#fff;}</style></defs><title>教师管理</title><g id="图层_2" data-name="图层 2"><g id="图层_1-2" data-name="图层 1"><rect class="cls-1" width="15" height="15"/><path class="cls-2" d="M10.84,4.48h1.58a.52.52,0,0,1,0,1H10.84a.52.52,0,1,1,0-1Z"/><path class="cls-2" d="M10.84,2.38h2.62a.52.52,0,0,1,0,1H10.84a.52.52,0,1,1,0-1Z"/><path class="cls-2" d="M11.38,8.74,13.32,6.8a.52.52,0,0,1,.74.74l-2,2a1.57,1.57,0,0,1,.1.56v3.67h-11V10.11A1.58,1.58,0,0,1,2.76,8.53h7.83a1.57,1.57,0,0,1,.79.21Z"/><circle class="cls-2" cx="6.48" cy="4.53" r="3.31"/></g></g></svg>