<svg xmlns="http://www.w3.org/2000/svg" viewBox="0 0 15 15"><defs><style>.cls-1{fill:#c1272d;opacity:0;}.cls-2{fill:#fff;}</style></defs><title>实例管理</title><g id="图层_2" data-name="图层 2"><g id="图层_1-2" data-name="图层 1"><rect class="cls-1" width="15" height="15"/><path class="cls-2" d="M1.19,4.76a.7.7,0,0,1,0-.11s0,0,0-.07l0-.05.07-.09.1-.09,0,0L7.19,1.24l.06,0,.12,0h.24l.12,0,.06,0,5.69,3.07.05,0,.09.08.08.1,0,0s0,0,0,.06a.62.62,0,0,1,0,.13.77.77,0,0,1,0,.12.66.66,0,0,1,0,.13.84.84,0,0,1,0,.12s0,0,0,.07l0,.05-.08.09-.1.09,0,0L7.8,8.53l-.06,0-.12,0H7.38l-.12,0-.06,0L1.51,5.46l0,0-.09-.08-.08-.1,0,0s0,0,0-.06a.62.62,0,0,1,0-.13.76.76,0,0,1,0-.12.66.66,0,0,1,0-.13Z"/><path class="cls-2" d="M13.49,10.69,7.8,13.77l-.06,0-.12,0H7.38l-.12,0-.06,0L1.51,10.69a.66.66,0,0,1-.27-.88.64.64,0,0,1,.87-.27L7.5,12.45l5.39-2.91a.64.64,0,0,1,.87.27.66.66,0,0,1-.27.88Z"/><path class="cls-2" d="M13.49,8.08,7.8,11.15l-.06,0-.12,0H7.38l-.12,0-.06,0L1.51,8.08a.66.66,0,0,1-.27-.88.64.64,0,0,1,.87-.27L7.5,9.83l5.39-2.91a.64.64,0,0,1,.87.27.66.66,0,0,1-.27.88Z"/></g></g></svg>