<svg xmlns="http://www.w3.org/2000/svg" viewBox="0 0 15 15"><defs><style>.cls-1{fill:#c1272d;opacity:0;}.cls-2{fill:#fff;}</style></defs><title>虚拟机管理</title><g id="图层_2" data-name="图层 2"><g id="图层_1-2" data-name="图层 1"><rect class="cls-1" width="15" height="15"/><path class="cls-2" d="M13.37,8.76H1.63a.42.42,0,0,1-.42-.42V5.82a.42.42,0,0,1,.42-.42H13.37a.42.42,0,0,1,.42.42V8.34A.42.42,0,0,1,13.37,8.76ZM12.11,6.24H10.44V7.92h1.68Z"/><path class="cls-2" d="M13.37,4.56H1.63a.42.42,0,0,1-.42-.42V1.63a.42.42,0,0,1,.42-.42H13.37a.42.42,0,0,1,.42.42V4.15A.42.42,0,0,1,13.37,4.56ZM12.11,2H10.44V3.73h1.68Z"/><path class="cls-2" d="M13.79,10.65v2.73a.42.42,0,0,1-.42.42h-.84a.42.42,0,0,1-.42-.42h0a.42.42,0,0,0-.42-.42H3.31a.42.42,0,0,0-.42.42h0a.42.42,0,0,1-.42.42H1.63a.42.42,0,0,1-.42-.42V10a.42.42,0,0,1,.42-.42H13.37a.42.42,0,0,1,.42.42Zm-1.68-.21H10.44v1.68h1.68Zm0,0"/></g></g></svg>